<?xml version="1.0" encoding="UTF-8" standalone="no"?><!DOCTYPE svg PUBLIC "-//W3C//DTD SVG 1.1//EN" "http://www.w3.org/Graphics/SVG/1.1/DTD/svg11.dtd"><svg width="100%" height="100%" viewBox="0 0 161 163" version="1.1" xmlns="http://www.w3.org/2000/svg" xmlns:xlink="http://www.w3.org/1999/xlink" xml:space="preserve" xmlns:serif="http://www.serif.com/" style="fill-rule:evenodd;clip-rule:evenodd;stroke-miterlimit:10;"><g id="g3"><g id="g2"><path id="path1" d="M4.2,137.6l0,-112.6c0,-11.4 9.4,-20.8 20.8,-20.8l110.5,0c11.4,0 20.8,9.4 20.8,20.8l0,112.6c-0,11.4 -9.4,20.8 -20.8,20.8l-110.5,0c-11.4,-0 -20.8,-9.4 -20.8,-20.8Z" style="fill:#fff166;fill-rule:nonzero;stroke:#cb9500;stroke-width:8.3px;"/><path id="path2" d="M77.4,42l-12.8,42.2c-0.7,2.4 -2.9,4 -5.4,4l-16.8,0c-0.6,-0 -1.2,0.4 -1.4,1c-0.2,0.6 -0,1.3 0.4,1.7l35.6,30.6c1.8,1.6 4.5,1.6 6.3,0l35.6,-30.6c0.5,-0.4 0.7,-1.1 0.4,-1.7c-0.2,-0.6 -0.8,-1 -1.4,-1l-16.2,0c-2.5,-0 -4.7,-1.6 -5.4,-4l-13.3,-42.3c-0.4,-1.3 -1.6,-2.1 -2.9,-2.1c-1.3,0 -2.5,0.9 -2.9,2.1l0,0Z" style="fill:#cb9500;fill-rule:nonzero;"/></g></g></svg>