<?xml version="1.0" encoding="UTF-8" standalone="no"?><!DOCTYPE svg PUBLIC "-//W3C//DTD SVG 1.1//EN" "http://www.w3.org/Graphics/SVG/1.1/DTD/svg11.dtd"><svg width="100%" height="100%" viewBox="0 0 161 163" version="1.1" xmlns="http://www.w3.org/2000/svg" xmlns:xlink="http://www.w3.org/1999/xlink" xml:space="preserve" xmlns:serif="http://www.serif.com/" style="fill-rule:evenodd;clip-rule:evenodd;stroke-miterlimit:10;"><g id="g3"><g id="g2"><path id="path1" d="M4.2,137.6l0,-112.6c0,-11.4 9.4,-20.8 20.8,-20.8l110.5,0c11.4,0 20.8,9.4 20.8,20.8l0,112.6c-0,11.4 -9.4,20.8 -20.8,20.8l-110.5,0c-11.4,-0 -20.8,-9.4 -20.8,-20.8Z" style="fill:#66ff6f;fill-rule:nonzero;stroke:#366d47;stroke-width:8.3px;"/><g id="g4"><path id="path2-9-4" d="M41.4,113.5l0,-64.4c-0,-1.6 0.9,-3 2.3,-3.7c1.4,-0.7 3.1,-0.5 4.3,0.4l39.4,30.4c1.6,1.2 2.5,3.1 2.5,5.1c-0,2 -0.9,3.9 -2.5,5.1l-39.4,30.3c-1.2,1 -2.9,1.1 -4.3,0.4c-1.4,-0.7 -2.3,-2.1 -2.3,-3.7l0,0Z" style="fill:#366d47;fill-rule:nonzero;"/><path id="path2" d="M81.9,45.1c-2.1,0.2 -3.8,2 -3.8,4.1l0,13.6l17.6,13.6c1.6,1.2 2.5,3.1 2.5,5.1c0,2 -0.9,3.9 -2.5,5.1l-17.6,13.5l0,13.5c-0,0 -0,0 -0,0c0,2.3 1.9,4.1 4.1,4.1c0.9,0 1.8,-0.3 2.5,-0.9l39.4,-30.3c1.6,-1.2 2.5,-3.1 2.5,-5.1c0,-2 -0.9,-3.9 -2.5,-5.1l-39.4,-30.4c-0.8,-0.6 -1.8,-0.9 -2.8,-0.8Z" style="fill:#366d47;fill-rule:nonzero;"/></g></g></g></svg>