<?xml version="1.0" encoding="UTF-8" standalone="no"?><!DOCTYPE svg PUBLIC "-//W3C//DTD SVG 1.1//EN" "http://www.w3.org/Graphics/SVG/1.1/DTD/svg11.dtd"><svg width="100%" height="100%" viewBox="0 0 671 680" version="1.1" xmlns="http://www.w3.org/2000/svg" xmlns:xlink="http://www.w3.org/1999/xlink" xml:space="preserve" xmlns:serif="http://www.serif.com/" style="fill-rule:evenodd;clip-rule:evenodd;stroke-miterlimit:10;"><path id="path1" d="M17.4,573.5l0,-469.4c0,-47.6 39.2,-86.8 86.8,-86.8l460.4,0c47.6,0 86.8,39.2 86.8,86.8l0,469.4c0,47.6 -39.2,86.8 -86.8,86.8l-460.4,0c-47.6,0 -86.8,-39.2 -86.8,-86.8Z" style="fill:#10aee6;fill-rule:nonzero;stroke:#1052d5;stroke-width:34.7px;"/><g id="g3"><g id="g2"><path id="path3" d="M176,92.2c-4.6,0 -8.3,3.7 -8.3,8.3l0,322.9c0,4.6 3.7,8.3 8.3,8.3l318.8,0c4.6,0 8.3,-3.7 8.3,-8.3l0,-231.5c-0,-5.4 -2,-10.5 -5.7,-14.4l-75,-79.3c-3.7,-3.9 -8.7,-6.1 -14.1,-6.1l-232.3,0Zm59.1,137.8l200.5,0c15,0 27.1,12.1 27.1,27.1l0,109.9c0,15 -12.1,27.1 -27.1,27.1l-200.5,0c-15,0 -27.1,-12.1 -27.1,-27.1l0,-109.9c0,-15 12.1,-27.1 27.1,-27.1Z" style="fill:#1052d5;"/><path id="path2" d="M322.6,267.3l-53.2,175.9c-3,9.8 -12.1,16.6 -22.4,16.6l-70.1,0c-2.7,0 -5.1,1.7 -6,4.2c-0.9,2.5 -0.2,5.4 1.8,7.1l148.5,127.6c7.5,6.5 18.8,6.5 26.3,0l148.5,-127.6c2,-1.8 2.8,-4.6 1.8,-7.1c-0.9,-2.5 -3.4,-4.2 -6,-4.2l-67.5,0c-10.3,0 -19.5,-6.7 -22.6,-16.6l-55.3,-176.1c-1.6,-5.2 -6.5,-8.8 -12,-8.8c-5.5,0 -10.3,3.7 -11.9,8.9l0,0l-0,0Z" style="fill:#1052d5;fill-rule:nonzero;"/></g></g></svg>